<?xml version="1.0" encoding="UTF-8" standalone="no"?>
<svg
   width="1419.33"
   height="120.546"
   viewBox="0 0 1419.33 120.546"
   fill="none"
   version="1.1"
   id="svg10"
   xmlns="http://www.w3.org/2000/svg"
   xmlns:svg="http://www.w3.org/2000/svg">
  <defs
     id="defs10" />
  <path
     d="m 0,29.1485 c 0,5.2698 1.26255,10.1553 3.78766,14.6566 2.63489,4.3915 6.2029806,7.9047 10.70426,10.5396 4.50127,2.6349 9.55148,3.9523 15.15068,3.9523 5.7089,0 10.7591,-1.3174 15.1506,-3.9523 4.5013,-2.6349 8.0145,-6.1481 10.5396,-10.5396 2.5251,-4.5013 3.7876,-9.3868 3.7876,-14.6566 0,-5.4894 -1.2625,-10.4298 -3.7876,-14.8213 C 52.8077,9.93575 49.2945,6.47745 44.7932,3.95234 40.4017,1.31745 35.3515,0 29.6426,0 24.0434,0 18.99319,1.31745 14.49192,3.95234 9.9906406,6.47745 6.42255,9.93575 3.78766,14.3272 1.26255,18.7187 0,23.6591 0,29.1485 Z m 17.78553,0 c 0,-2.3055 0.49405,-4.3915 1.48213,-6.2579 0.98804,-1.8663 2.36044,-3.3485 4.11704,-4.4463 1.7566,-1.2077 3.8425,-1.8115 6.2579,-1.8115 2.4153,0 4.4463,0.6038 6.0931,1.8115 1.7566,1.0978 3.129,2.58 4.1171,4.4463 0.9881,1.8664 1.4821,3.9524 1.4821,6.2579 0,2.1957 -0.494,4.2817 -1.4821,6.2579 -0.9881,1.8664 -2.3605,3.3485 -4.1171,4.4464 -1.6468,1.0978 -3.6778,1.6468 -6.0931,1.6468 -2.4154,0 -4.5013,-0.549 -6.2579,-1.6468 -1.7566,-1.0979 -3.129,-2.58 -4.11704,-4.4464 -0.98808,-1.9762 -1.48213,-4.0622 -1.48213,-6.2579 z M 74.9298,91.3979 c 0,5.3795 1.2625,10.2651 3.7876,14.6561 2.6349,4.392 6.203,7.905 10.7043,10.54 4.5013,2.635 9.5515,3.952 15.1506,3.952 5.7087,0 10.7587,-1.317 15.1507,-3.952 4.501,-2.635 8.014,-6.148 10.54,-10.54 2.525,-4.391 3.787,-9.2766 3.787,-14.6561 0,-5.3796 -1.262,-10.2651 -3.787,-14.6566 -2.526,-4.5013 -6.039,-8.0145 -10.54,-10.5396 -4.392,-2.6349 -9.442,-3.9523 -15.1507,-3.9523 -5.5991,0 -10.6493,1.3174 -15.1506,3.9523 -4.5013,2.5251 -8.0694,6.0383 -10.7043,10.5396 -2.5251,4.3915 -3.7876,9.277 -3.7876,14.6566 z m 17.7855,0 c 0,-2.3056 0.4941,-4.3915 1.4822,-6.2579 0.988,-1.8664 2.3604,-3.3485 4.117,-4.4464 1.7566,-1.0979 3.8425,-1.6468 6.2578,-1.6468 2.4154,0 4.4464,0.5489 6.0937,1.6468 1.756,1.0979 3.128,2.58 4.117,4.4464 0.988,1.8664 1.482,3.9523 1.482,6.2579 0,2.1957 -0.494,4.2817 -1.482,6.2579 -0.989,1.8663 -2.361,3.3482 -4.117,4.4462 -1.6473,1.098 -3.6783,1.647 -6.0937,1.647 -2.4153,0 -4.5012,-0.549 -6.2578,-1.647 -1.7566,-1.098 -3.129,-2.5799 -4.117,-4.4462 -0.9881,-1.9762 -1.4822,-4.0622 -1.4822,-6.2579 z M 98.3145,2.63489 14.32723,117.911 H 35.9004 L 119.888,2.63489 Z"
     fill="#ffffff"
     fill-opacity="0.08"
     id="path1" />
  <path
     d="m 142.809,29.1485 c 0,5.2698 1.263,10.1553 3.788,14.6566 2.635,4.3915 6.203,7.9047 10.704,10.5396 4.501,2.6349 9.552,3.9523 15.151,3.9523 5.709,0 10.759,-1.3174 15.15,-3.9523 4.502,-2.6349 8.015,-6.1481 10.54,-10.5396 2.525,-4.5013 3.788,-9.3868 3.788,-14.6566 0,-5.4894 -1.263,-10.4298 -3.788,-14.8213 C 195.617,9.93575 192.104,6.47745 187.602,3.95234 183.211,1.31745 178.161,0 172.452,0 c -5.599,0 -10.65,1.31745 -15.151,3.95234 -4.501,2.52511 -8.069,5.98341 -10.704,10.37486 -2.525,4.3915 -3.788,9.3319 -3.788,14.8213 z m 17.786,0 c 0,-2.3055 0.494,-4.3915 1.482,-6.2579 0.988,-1.8663 2.36,-3.3485 4.117,-4.4463 1.756,-1.2077 3.842,-1.8115 6.258,-1.8115 2.415,0 4.446,0.6038 6.093,1.8115 1.757,1.0978 3.129,2.58 4.117,4.4463 0.988,1.8664 1.482,3.9524 1.482,6.2579 0,2.1957 -0.494,4.2817 -1.482,6.2579 -0.988,1.8664 -2.36,3.3485 -4.117,4.4464 -1.647,1.0978 -3.678,1.6468 -6.093,1.6468 -2.416,0 -4.502,-0.549 -6.258,-1.6468 -1.757,-1.0979 -3.129,-2.58 -4.117,-4.4464 -0.988,-1.9762 -1.482,-4.0622 -1.482,-6.2579 z m 57.144,62.2494 c 0,5.3795 1.263,10.2651 3.788,14.6561 2.634,4.392 6.203,7.905 10.704,10.54 4.501,2.635 9.551,3.952 15.151,3.952 5.708,0 10.759,-1.317 15.15,-3.952 4.501,-2.635 8.015,-6.148 10.54,-10.54 2.525,-4.391 3.787,-9.2766 3.787,-14.6561 0,-5.3796 -1.262,-10.2651 -3.787,-14.6566 -2.525,-4.5013 -6.039,-8.0145 -10.54,-10.5396 -4.391,-2.6349 -9.442,-3.9523 -15.15,-3.9523 -5.6,0 -10.65,1.3174 -15.151,3.9523 -4.501,2.5251 -8.07,6.0383 -10.704,10.5396 -2.525,4.3915 -3.788,9.277 -3.788,14.6566 z m 17.785,0 c 0,-2.3056 0.495,-4.3915 1.483,-6.2579 0.988,-1.8664 2.36,-3.3485 4.117,-4.4464 1.756,-1.0979 3.842,-1.6468 6.258,-1.6468 2.415,0 4.446,0.5489 6.093,1.6468 1.756,1.0979 3.129,2.58 4.117,4.4464 0.988,1.8664 1.482,3.9523 1.482,6.2579 0,2.1957 -0.494,4.2817 -1.482,6.2579 -0.988,1.8663 -2.361,3.3482 -4.117,4.4462 -1.647,1.098 -3.678,1.647 -6.093,1.647 -2.416,0 -4.502,-0.549 -6.258,-1.647 -1.757,-1.098 -3.129,-2.5799 -4.117,-4.4462 -0.988,-1.9762 -1.483,-4.0622 -1.483,-6.2579 z M 241.124,2.63489 157.136,117.911 H 178.71 L 262.697,2.63489 Z"
     fill="#ffffff"
     fill-opacity="0.08"
     id="path2" />
  <path
     d="m 285.618,29.1485 c 0,5.2698 1.263,10.1553 3.788,14.6566 2.635,4.3915 6.203,7.9047 10.704,10.5396 4.502,2.6349 9.552,3.9523 15.151,3.9523 5.709,0 10.759,-1.3174 15.151,-3.9523 4.501,-2.6349 8.014,-6.1481 10.539,-10.5396 2.525,-4.5013 3.788,-9.3868 3.788,-14.6566 0,-5.4894 -1.263,-10.4298 -3.788,-14.8213 C 338.426,9.93575 334.913,6.47745 330.412,3.95234 326.02,1.31745 320.97,0 315.261,0 c -5.599,0 -10.649,1.31745 -15.151,3.95234 -4.501,2.52511 -8.069,5.98341 -10.704,10.37486 -2.525,4.3915 -3.788,9.3319 -3.788,14.8213 z m 17.786,0 c 0,-2.3055 0.494,-4.3915 1.482,-6.2579 0.988,-1.8663 2.36,-3.3485 4.117,-4.4463 1.757,-1.2077 3.843,-1.8115 6.258,-1.8115 2.415,0 4.446,0.6038 6.093,1.8115 1.757,1.0978 3.129,2.58 4.117,4.4463 0.988,1.8664 1.482,3.9524 1.482,6.2579 0,2.1957 -0.494,4.2817 -1.482,6.2579 -0.988,1.8664 -2.36,3.3485 -4.117,4.4464 -1.647,1.0978 -3.678,1.6468 -6.093,1.6468 -2.415,0 -4.501,-0.549 -6.258,-1.6468 -1.757,-1.0979 -3.129,-2.58 -4.117,-4.4464 -0.988,-1.9762 -1.482,-4.0622 -1.482,-6.2579 z m 57.144,62.2494 c 0,5.3795 1.263,10.2651 3.788,14.6561 2.635,4.392 6.203,7.905 10.704,10.54 4.501,2.635 9.552,3.952 15.151,3.952 5.709,0 10.759,-1.317 15.15,-3.952 4.502,-2.635 8.015,-6.148 10.54,-10.54 2.525,-4.391 3.788,-9.2766 3.788,-14.6561 0,-5.3796 -1.263,-10.2651 -3.788,-14.6566 -2.525,-4.5013 -6.038,-8.0145 -10.54,-10.5396 -4.391,-2.6349 -9.441,-3.9523 -15.15,-3.9523 -5.599,0 -10.65,1.3174 -15.151,3.9523 -4.501,2.5251 -8.069,6.0383 -10.704,10.5396 -2.525,4.3915 -3.788,9.277 -3.788,14.6566 z m 17.786,0 c 0,-2.3056 0.494,-4.3915 1.482,-6.2579 0.988,-1.8664 2.36,-3.3485 4.117,-4.4464 1.756,-1.0979 3.842,-1.6468 6.258,-1.6468 2.415,0 4.446,0.5489 6.093,1.6468 1.756,1.0979 3.129,2.58 4.117,4.4464 0.988,1.8664 1.482,3.9523 1.482,6.2579 0,2.1957 -0.494,4.2817 -1.482,6.2579 -0.988,1.8663 -2.361,3.3482 -4.117,4.4462 -1.647,1.098 -3.678,1.647 -6.093,1.647 -2.416,0 -4.502,-0.549 -6.258,-1.647 -1.757,-1.098 -3.129,-2.5799 -4.117,-4.4462 -0.988,-1.9762 -1.482,-4.0622 -1.482,-6.2579 z M 383.933,2.63489 299.946,117.911 h 21.573 L 405.506,2.63489 Z"
     fill="#ffffff"
     fill-opacity="0.08"
     id="path3" />
  <path
     d="m 428.428,29.1485 c 0,5.2698 1.262,10.1553 3.787,14.6566 2.635,4.3915 6.203,7.9047 10.704,10.5396 4.502,2.6349 9.552,3.9523 15.151,3.9523 5.709,0 10.759,-1.3174 15.151,-3.9523 4.501,-2.6349 8.014,-6.1481 10.539,-10.5396 2.525,-4.5013 3.788,-9.3868 3.788,-14.6566 0,-5.4894 -1.263,-10.4298 -3.788,-14.8213 C 481.235,9.93575 477.722,6.47745 473.221,3.95234 468.829,1.31745 463.779,0 458.07,0 c -5.599,0 -10.649,1.31745 -15.151,3.95234 -4.501,2.52511 -8.069,5.98341 -10.704,10.37486 -2.525,4.3915 -3.787,9.3319 -3.787,14.8213 z m 17.785,0 c 0,-2.3055 0.494,-4.3915 1.482,-6.2579 0.988,-1.8663 2.361,-3.3485 4.117,-4.4463 1.757,-1.2077 3.843,-1.8115 6.258,-1.8115 2.415,0 4.446,0.6038 6.093,1.8115 1.757,1.0978 3.129,2.58 4.117,4.4463 0.988,1.8664 1.482,3.9524 1.482,6.2579 0,2.1957 -0.494,4.2817 -1.482,6.2579 -0.988,1.8664 -2.36,3.3485 -4.117,4.4464 -1.647,1.0978 -3.678,1.6468 -6.093,1.6468 -2.415,0 -4.501,-0.549 -6.258,-1.6468 -1.756,-1.0979 -3.129,-2.58 -4.117,-4.4464 -0.988,-1.9762 -1.482,-4.0622 -1.482,-6.2579 z m 57.144,62.2494 c 0,5.3795 1.263,10.2651 3.788,14.6561 2.635,4.392 6.203,7.905 10.704,10.54 4.502,2.635 9.552,3.952 15.151,3.952 5.709,0 10.759,-1.317 15.151,-3.952 4.501,-2.635 8.014,-6.148 10.539,-10.54 2.525,-4.391 3.788,-9.2766 3.788,-14.6561 0,-5.3796 -1.263,-10.2651 -3.788,-14.6566 -2.525,-4.5013 -6.038,-8.0145 -10.539,-10.5396 -4.392,-2.6349 -9.442,-3.9523 -15.151,-3.9523 -5.599,0 -10.649,1.3174 -15.151,3.9523 -4.501,2.5251 -8.069,6.0383 -10.704,10.5396 -2.525,4.3915 -3.788,9.277 -3.788,14.6566 z m 17.786,0 c 0,-2.3056 0.494,-4.3915 1.482,-6.2579 0.988,-1.8664 2.36,-3.3485 4.117,-4.4464 1.757,-1.0979 3.843,-1.6468 6.258,-1.6468 2.415,0 4.446,0.5489 6.093,1.6468 1.757,1.0979 3.129,2.58 4.117,4.4464 0.988,1.8664 1.482,3.9523 1.482,6.2579 0,2.1957 -0.494,4.2817 -1.482,6.2579 -0.988,1.8663 -2.36,3.3482 -4.117,4.4462 -1.647,1.098 -3.678,1.647 -6.093,1.647 -2.415,0 -4.501,-0.549 -6.258,-1.647 -1.757,-1.098 -3.129,-2.5799 -4.117,-4.4462 -0.988,-1.9762 -1.482,-4.0622 -1.482,-6.2579 z M 526.742,2.63489 442.755,117.911 h 21.573 L 548.315,2.63489 Z"
     fill="#ffffff"
     fill-opacity="0.08"
     id="path4" />
  <path
     d="m 571.237,29.1485 c 0,5.2698 1.262,10.1553 3.787,14.6566 2.635,4.3915 6.203,7.9047 10.705,10.5396 4.501,2.6349 9.551,3.9523 15.15,3.9523 5.709,0 10.759,-1.3174 15.151,-3.9523 4.501,-2.6349 8.014,-6.1481 10.539,-10.5396 2.526,-4.5013 3.788,-9.3868 3.788,-14.6566 0,-5.4894 -1.262,-10.4298 -3.788,-14.8213 C 624.044,9.93575 620.531,6.47745 616.03,3.95234 611.638,1.31745 606.588,0 600.879,0 c -5.599,0 -10.649,1.31745 -15.15,3.95234 -4.502,2.52511 -8.07,5.98341 -10.705,10.37486 -2.525,4.3915 -3.787,9.3319 -3.787,14.8213 z m 17.785,0 c 0,-2.3055 0.494,-4.3915 1.482,-6.2579 0.988,-1.8663 2.361,-3.3485 4.117,-4.4463 1.757,-1.2077 3.843,-1.8115 6.258,-1.8115 2.416,0 4.447,0.6038 6.093,1.8115 1.757,1.0978 3.129,2.58 4.117,4.4463 0.989,1.8664 1.483,3.9524 1.483,6.2579 0,2.1957 -0.494,4.2817 -1.483,6.2579 -0.988,1.8664 -2.36,3.3485 -4.117,4.4464 -1.646,1.0978 -3.677,1.6468 -6.093,1.6468 -2.415,0 -4.501,-0.549 -6.258,-1.6468 -1.756,-1.0979 -3.129,-2.58 -4.117,-4.4464 -0.988,-1.9762 -1.482,-4.0622 -1.482,-6.2579 z m 57.145,62.2494 c 0,5.3795 1.262,10.2651 3.787,14.6561 2.635,4.392 6.203,7.905 10.704,10.54 4.502,2.635 9.552,3.952 15.151,3.952 5.709,0 10.759,-1.317 15.151,-3.952 4.501,-2.635 8.014,-6.148 10.539,-10.54 2.525,-4.391 3.788,-9.2766 3.788,-14.6561 0,-5.3796 -1.263,-10.2651 -3.788,-14.6566 -2.525,-4.5013 -6.038,-8.0145 -10.539,-10.5396 -4.392,-2.6349 -9.442,-3.9523 -15.151,-3.9523 -5.599,0 -10.649,1.3174 -15.151,3.9523 -4.501,2.5251 -8.069,6.0383 -10.704,10.5396 -2.525,4.3915 -3.787,9.277 -3.787,14.6566 z m 17.785,0 c 0,-2.3056 0.494,-4.3915 1.482,-6.2579 0.988,-1.8664 2.361,-3.3485 4.117,-4.4464 1.757,-1.0979 3.843,-1.6468 6.258,-1.6468 2.415,0 4.446,0.5489 6.093,1.6468 1.757,1.0979 3.129,2.58 4.117,4.4464 0.988,1.8664 1.482,3.9523 1.482,6.2579 0,2.1957 -0.494,4.2817 -1.482,6.2579 -0.988,1.8663 -2.36,3.3482 -4.117,4.4462 -1.647,1.098 -3.678,1.647 -6.093,1.647 -2.415,0 -4.501,-0.549 -6.258,-1.647 -1.756,-1.098 -3.129,-2.5799 -4.117,-4.4462 -0.988,-1.9762 -1.482,-4.0622 -1.482,-6.2579 z M 669.551,2.63489 585.564,117.911 h 21.573 L 691.124,2.63489 Z"
     fill="#ffffff"
     fill-opacity="0.08"
     id="path5" />
  <path
     d="m 714.046,29.1485 c 0,5.2698 1.262,10.1553 3.788,14.6566 2.634,4.3915 6.203,7.9047 10.704,10.5396 4.501,2.6349 9.551,3.9523 15.15,3.9523 5.709,0 10.76,-1.3174 15.151,-3.9523 4.501,-2.6349 8.015,-6.1481 10.54,-10.5396 2.525,-4.5013 3.787,-9.3868 3.787,-14.6566 0,-5.4894 -1.262,-10.4298 -3.787,-14.8213 C 766.854,9.93575 763.34,6.47745 758.839,3.95234 754.448,1.31745 749.397,0 743.688,0 c -5.599,0 -10.649,1.31745 -15.15,3.95234 -4.501,2.52511 -8.07,5.98341 -10.704,10.37486 -2.526,4.3915 -3.788,9.3319 -3.788,14.8213 z m 17.785,0 c 0,-2.3055 0.495,-4.3915 1.483,-6.2579 0.988,-1.8663 2.36,-3.3485 4.117,-4.4463 1.756,-1.2077 3.842,-1.8115 6.257,-1.8115 2.416,0 4.447,0.6038 6.094,1.8115 1.756,1.0978 3.129,2.58 4.117,4.4463 0.988,1.8664 1.482,3.9524 1.482,6.2579 0,2.1957 -0.494,4.2817 -1.482,6.2579 -0.988,1.8664 -2.361,3.3485 -4.117,4.4464 -1.647,1.0978 -3.678,1.6468 -6.094,1.6468 -2.415,0 -4.501,-0.549 -6.257,-1.6468 -1.757,-1.0979 -3.129,-2.58 -4.117,-4.4464 -0.988,-1.9762 -1.483,-4.0622 -1.483,-6.2579 z m 57.145,62.2494 c 0,5.3795 1.262,10.2651 3.787,14.6561 2.635,4.392 6.203,7.905 10.705,10.54 4.501,2.635 9.551,3.952 15.15,3.952 5.709,0 10.759,-1.317 15.151,-3.952 4.501,-2.635 8.014,-6.148 10.539,-10.54 2.526,-4.391 3.788,-9.2766 3.788,-14.6561 0,-5.3796 -1.262,-10.2651 -3.788,-14.6566 -2.525,-4.5013 -6.038,-8.0145 -10.539,-10.5396 -4.392,-2.6349 -9.442,-3.9523 -15.151,-3.9523 -5.599,0 -10.649,1.3174 -15.15,3.9523 -4.502,2.5251 -8.07,6.0383 -10.705,10.5396 -2.525,4.3915 -3.787,9.277 -3.787,14.6566 z m 17.785,0 c 0,-2.3056 0.494,-4.3915 1.482,-6.2579 0.988,-1.8664 2.361,-3.3485 4.117,-4.4464 1.757,-1.0979 3.843,-1.6468 6.258,-1.6468 2.416,0 4.447,0.5489 6.093,1.6468 1.757,1.0979 3.129,2.58 4.117,4.4464 0.989,1.8664 1.483,3.9523 1.483,6.2579 0,2.1957 -0.494,4.2817 -1.483,6.2579 -0.988,1.8663 -2.36,3.3482 -4.117,4.4462 -1.646,1.098 -3.677,1.647 -6.093,1.647 -2.415,0 -4.501,-0.549 -6.258,-1.647 -1.756,-1.098 -3.129,-2.5799 -4.117,-4.4462 -0.988,-1.9762 -1.482,-4.0622 -1.482,-6.2579 z M 812.36,2.63489 728.373,117.911 h 21.573 L 833.934,2.63489 Z"
     fill="#ffffff"
     fill-opacity="0.08"
     id="path6" />
  <path
     d="m 856.855,29.1485 c 0,5.2698 1.263,10.1553 3.788,14.6566 2.635,4.3915 6.203,7.9047 10.704,10.5396 4.501,2.6349 9.551,3.9523 15.151,3.9523 5.709,0 10.759,-1.3174 15.15,-3.9523 4.502,-2.6349 8.015,-6.1481 10.54,-10.5396 2.525,-4.5013 3.787,-9.3868 3.787,-14.6566 0,-5.4894 -1.262,-10.4298 -3.787,-14.8213 C 909.663,9.93575 906.15,6.47745 901.648,3.95234 897.257,1.31745 892.207,0 886.498,0 c -5.6,0 -10.65,1.31745 -15.151,3.95234 -4.501,2.52511 -8.069,5.98341 -10.704,10.37486 -2.525,4.3915 -3.788,9.3319 -3.788,14.8213 z m 17.786,0 c 0,-2.3055 0.494,-4.3915 1.482,-6.2579 0.988,-1.8663 2.36,-3.3485 4.117,-4.4463 1.756,-1.2077 3.842,-1.8115 6.258,-1.8115 2.415,0 4.446,0.6038 6.093,1.8115 1.756,1.0978 3.129,2.58 4.117,4.4463 0.988,1.8664 1.482,3.9524 1.482,6.2579 0,2.1957 -0.494,4.2817 -1.482,6.2579 -0.988,1.8664 -2.361,3.3485 -4.117,4.4464 -1.647,1.0978 -3.678,1.6468 -6.093,1.6468 -2.416,0 -4.502,-0.549 -6.258,-1.6468 -1.757,-1.0979 -3.129,-2.58 -4.117,-4.4464 -0.988,-1.9762 -1.482,-4.0622 -1.482,-6.2579 z m 57.144,62.2494 c 0,5.3795 1.262,10.2651 3.788,14.6561 2.634,4.392 6.203,7.905 10.704,10.54 4.501,2.635 9.551,3.952 15.15,3.952 5.709,0 10.76,-1.317 15.151,-3.952 4.501,-2.635 8.015,-6.148 10.54,-10.54 2.525,-4.391 3.787,-9.2766 3.787,-14.6561 0,-5.3796 -1.262,-10.2651 -3.787,-14.6566 -2.525,-4.5013 -6.039,-8.0145 -10.54,-10.5396 -4.391,-2.6349 -9.442,-3.9523 -15.151,-3.9523 -5.599,0 -10.649,1.3174 -15.15,3.9523 -4.501,2.5251 -8.07,6.0383 -10.704,10.5396 -2.526,4.3915 -3.788,9.277 -3.788,14.6566 z m 17.785,0 c 0,-2.3056 0.494,-4.3915 1.482,-6.2579 0.989,-1.8664 2.361,-3.3485 4.118,-4.4464 1.756,-1.0979 3.842,-1.6468 6.257,-1.6468 2.416,0 4.447,0.5489 6.094,1.6468 1.756,1.0979 3.129,2.58 4.117,4.4464 0.988,1.8664 1.482,3.9523 1.482,6.2579 0,2.1957 -0.494,4.2817 -1.482,6.2579 -0.988,1.8663 -2.361,3.3482 -4.117,4.4462 -1.647,1.098 -3.678,1.647 -6.094,1.647 -2.415,0 -4.501,-0.549 -6.257,-1.647 -1.757,-1.098 -3.129,-2.5799 -4.118,-4.4462 -0.988,-1.9762 -1.482,-4.0622 -1.482,-6.2579 z M 955.17,2.63489 871.182,117.911 h 21.573 L 976.743,2.63489 Z"
     fill="#ffffff"
     fill-opacity="0.08"
     id="path7" />
  <path
     d="m 999.664,29.1485 c 0,5.2698 1.263,10.1553 3.788,14.6566 2.635,4.3915 6.203,7.9047 10.708,10.5396 4.5,2.6349 9.55,3.9523 15.15,3.9523 5.71,0 10.76,-1.3174 15.15,-3.9523 4.5,-2.6349 8.01,-6.1481 10.54,-10.5396 2.52,-4.5013 3.78,-9.3868 3.78,-14.6566 0,-5.4894 -1.26,-10.4298 -3.78,-14.8213 -2.53,-4.39145 -6.04,-7.84975 -10.54,-10.37486 C 1040.07,1.31745 1035.02,0 1029.31,0 c -5.6,0 -10.65,1.31745 -15.15,3.95234 -4.505,2.52511 -8.073,5.98341 -10.708,10.37486 -2.525,4.3915 -3.788,9.3319 -3.788,14.8213 z m 17.786,0 c 0,-2.3055 0.49,-4.3915 1.48,-6.2579 0.99,-1.8663 2.36,-3.3485 4.12,-4.4463 1.76,-1.2077 3.84,-1.8115 6.26,-1.8115 2.41,0 4.44,0.6038 6.09,1.8115 1.76,1.0978 3.13,2.58 4.12,4.4463 0.99,1.8664 1.48,3.9524 1.48,6.2579 0,2.1957 -0.49,4.2817 -1.48,6.2579 -0.99,1.8664 -2.36,3.3485 -4.12,4.4464 -1.65,1.0978 -3.68,1.6468 -6.09,1.6468 -2.42,0 -4.5,-0.549 -6.26,-1.6468 -1.76,-1.0979 -3.13,-2.58 -4.12,-4.4464 -0.99,-1.9762 -1.48,-4.0622 -1.48,-6.2579 z m 57.14,62.2494 c 0,5.3795 1.27,10.2651 3.79,14.6561 2.64,4.392 6.2,7.905 10.71,10.54 4.5,2.635 9.55,3.952 15.15,3.952 5.71,0 10.76,-1.317 15.15,-3.952 4.5,-2.635 8.01,-6.148 10.54,-10.54 2.52,-4.391 3.78,-9.2766 3.78,-14.6561 0,-5.3796 -1.26,-10.2651 -3.78,-14.6566 -2.53,-4.5013 -6.04,-8.0145 -10.54,-10.5396 -4.39,-2.6349 -9.44,-3.9523 -15.15,-3.9523 -5.6,0 -10.65,1.3174 -15.15,3.9523 -4.51,2.5251 -8.07,6.0383 -10.71,10.5396 -2.52,4.3915 -3.79,9.277 -3.79,14.6566 z m 17.79,0 c 0,-2.3056 0.49,-4.3915 1.48,-6.2579 0.99,-1.8664 2.36,-3.3485 4.12,-4.4464 1.76,-1.0979 3.84,-1.6468 6.26,-1.6468 2.41,0 4.44,0.5489 6.09,1.6468 1.76,1.0979 3.13,2.58 4.12,4.4464 0.98,1.8664 1.48,3.9523 1.48,6.2579 0,2.1957 -0.5,4.2817 -1.48,6.2579 -0.99,1.8663 -2.36,3.3482 -4.12,4.4462 -1.65,1.098 -3.68,1.647 -6.09,1.647 -2.42,0 -4.5,-0.549 -6.26,-1.647 -1.76,-1.098 -3.13,-2.5799 -4.12,-4.4462 -0.99,-1.9762 -1.48,-4.0622 -1.48,-6.2579 z m 5.6,-88.76301 -83.99,115.27611 h 21.57 L 1119.55,2.63489 Z"
     fill="#ffffff"
     fill-opacity="0.08"
     id="path8" />
  <path
     d="m 1142.47,29.1485 c 0,5.2698 1.27,10.1553 3.79,14.6566 2.64,4.3915 6.2,7.9047 10.71,10.5396 4.5,2.6349 9.55,3.9523 15.15,3.9523 5.7,0 10.76,-1.3174 15.15,-3.9523 4.5,-2.6349 8.01,-6.1481 10.54,-10.5396 2.52,-4.5013 3.78,-9.3868 3.78,-14.6566 0,-5.4894 -1.26,-10.4298 -3.78,-14.8213 -2.53,-4.39145 -6.04,-7.84975 -10.54,-10.37486 C 1182.88,1.31745 1177.82,0 1172.12,0 c -5.6,0 -10.65,1.31745 -15.15,3.95234 -4.51,2.52511 -8.07,5.98341 -10.71,10.37486 -2.52,4.3915 -3.79,9.3319 -3.79,14.8213 z m 17.79,0 c 0,-2.3055 0.49,-4.3915 1.48,-6.2579 0.99,-1.8663 2.36,-3.3485 4.12,-4.4463 1.75,-1.2077 3.84,-1.8115 6.26,-1.8115 2.41,0 4.44,0.6038 6.09,1.8115 1.76,1.0978 3.13,2.58 4.12,4.4463 0.98,1.8664 1.48,3.9524 1.48,6.2579 0,2.1957 -0.5,4.2817 -1.48,6.2579 -0.99,1.8664 -2.36,3.3485 -4.12,4.4464 -1.65,1.0978 -3.68,1.6468 -6.09,1.6468 -2.42,0 -4.51,-0.549 -6.26,-1.6468 -1.76,-1.0979 -3.13,-2.58 -4.12,-4.4464 -0.99,-1.9762 -1.48,-4.0622 -1.48,-6.2579 z m 57.14,62.2494 c 0,5.3795 1.27,10.2651 3.79,14.6561 2.64,4.392 6.2,7.905 10.71,10.54 4.5,2.635 9.55,3.952 15.15,3.952 5.7,0 10.75,-1.317 15.15,-3.952 4.5,-2.635 8.01,-6.148 10.54,-10.54 2.52,-4.391 3.78,-9.2766 3.78,-14.6561 0,-5.3796 -1.26,-10.2651 -3.78,-14.6566 -2.53,-4.5013 -6.04,-8.0145 -10.54,-10.5396 -4.4,-2.6349 -9.45,-3.9523 -15.15,-3.9523 -5.6,0 -10.65,1.3174 -15.15,3.9523 -4.51,2.5251 -8.07,6.0383 -10.71,10.5396 -2.52,4.3915 -3.79,9.277 -3.79,14.6566 z m 17.79,0 c 0,-2.3056 0.49,-4.3915 1.48,-6.2579 0.99,-1.8664 2.36,-3.3485 4.12,-4.4464 1.75,-1.0979 3.84,-1.6468 6.26,-1.6468 2.41,0 4.44,0.5489 6.09,1.6468 1.76,1.0979 3.13,2.58 4.12,4.4464 0.98,1.8664 1.48,3.9523 1.48,6.2579 0,2.1957 -0.5,4.2817 -1.48,6.2579 -0.99,1.8663 -2.36,3.3482 -4.12,4.4462 -1.65,1.098 -3.68,1.647 -6.09,1.647 -2.42,0 -4.51,-0.549 -6.26,-1.647 -1.76,-1.098 -3.13,-2.5799 -4.12,-4.4462 -0.99,-1.9762 -1.48,-4.0622 -1.48,-6.2579 z m 5.6,-88.76301 -83.99,115.27611 h 21.57 L 1262.36,2.63489 Z"
     fill="#ffffff"
     fill-opacity="0.08"
     id="path9" />
  <path
     d="m 1285.28,29.1485 c 0,5.2698 1.27,10.1553 3.79,14.6566 2.64,4.3915 6.2,7.9047 10.7,10.5396 4.51,2.6349 9.56,3.9523 15.16,3.9523 5.7,0 10.75,-1.3174 15.15,-3.9523 4.5,-2.6349 8.01,-6.1481 10.54,-10.5396 2.52,-4.5013 3.78,-9.3868 3.78,-14.6566 0,-5.4894 -1.26,-10.4298 -3.78,-14.8213 -2.53,-4.39145 -6.04,-7.84975 -10.54,-10.37486 C 1325.68,1.31745 1320.63,0 1314.93,0 c -5.6,0 -10.65,1.31745 -15.16,3.95234 -4.5,2.52511 -8.06,5.98341 -10.7,10.37486 -2.52,4.3915 -3.79,9.3319 -3.79,14.8213 z m 17.79,0 c 0,-2.3055 0.49,-4.3915 1.48,-6.2579 0.99,-1.8663 2.36,-3.3485 4.12,-4.4463 1.75,-1.2077 3.84,-1.8115 6.26,-1.8115 2.41,0 4.44,0.6038 6.09,1.8115 1.75,1.0978 3.13,2.58 4.12,4.4463 0.98,1.8664 1.48,3.9524 1.48,6.2579 0,2.1957 -0.5,4.2817 -1.48,6.2579 -0.99,1.8664 -2.37,3.3485 -4.12,4.4464 -1.65,1.0978 -3.68,1.6468 -6.09,1.6468 -2.42,0 -4.51,-0.549 -6.26,-1.6468 -1.76,-1.0979 -3.13,-2.58 -4.12,-4.4464 -0.99,-1.9762 -1.48,-4.0622 -1.48,-6.2579 z m 57.14,62.2494 c 0,5.3795 1.26,10.2651 3.79,14.6561 2.63,4.392 6.2,7.905 10.7,10.54 4.51,2.635 9.56,3.952 15.15,3.952 5.71,0 10.76,-1.317 15.16,-3.952 4.5,-2.635 8.01,-6.148 10.54,-10.54 2.52,-4.391 3.78,-9.2766 3.78,-14.6561 0,-5.3796 -1.26,-10.2651 -3.78,-14.6566 -2.53,-4.5013 -6.04,-8.0145 -10.54,-10.5396 -4.4,-2.6349 -9.45,-3.9523 -15.16,-3.9523 -5.59,0 -10.64,1.3174 -15.15,3.9523 -4.5,2.5251 -8.07,6.0383 -10.7,10.5396 -2.53,4.3915 -3.79,9.277 -3.79,14.6566 z m 17.79,0 c 0,-2.3056 0.49,-4.3915 1.48,-6.2579 0.99,-1.8664 2.36,-3.3485 4.12,-4.4464 1.75,-1.0979 3.84,-1.6468 6.25,-1.6468 2.42,0 4.45,0.5489 6.1,1.6468 1.75,1.0979 3.13,2.58 4.12,4.4464 0.98,1.8664 1.48,3.9523 1.48,6.2579 0,2.1957 -0.5,4.2817 -1.48,6.2579 -0.99,1.8663 -2.37,3.3482 -4.12,4.4462 -1.65,1.098 -3.68,1.647 -6.1,1.647 -2.41,0 -4.5,-0.549 -6.25,-1.647 -1.76,-1.098 -3.13,-2.5799 -4.12,-4.4462 -0.99,-1.9762 -1.48,-4.0622 -1.48,-6.2579 z m 5.6,-88.76301 -83.99,115.27611 h 21.57 L 1405.17,2.63489 Z"
     fill="#ffffff"
     fill-opacity="0.08"
     id="path10" />
</svg>
